<?xml version="1.0" encoding="UTF-8"?>
<svg id="Alexis" xmlns="http://www.w3.org/2000/svg" xmlns:xlink="http://www.w3.org/1999/xlink" viewBox="0 0 400 400">
  <defs>
    <linearGradient id="Dégradé_sans_nom_13" data-name="Dégradé sans nom 13" x1="199.92" y1="201.42" x2="200.59" y2="144.43" gradientUnits="userSpaceOnUse">
      <stop offset=".1" stop-color="#ffab9c"/>
      <stop offset="1" stop-color="#ffc8b0" stop-opacity="0"/>
    </linearGradient>
  </defs>
  <path id="cheveux" d="m131.56,272.14c10.82,5.16,32.63-7.39,36.02-10.38,9.13-8.09-2.38-64.79-28.98-60.06-23.37,4.16-33.36,11.85-31.53,33.33,3,21.64,9.97,30.24,24.49,37.12Z" fill="#a67c52"/>
  <path id="cou" d="m40.16,343.51c54.33-6.56,89.06-40.29,89.06-40.29,17.13-19.12,13.96-83.97,13.96-83.97h109.82s-3.17,64.85,13.95,83.97c0,0,34.73,33.73,89.06,40.29,0,0,7.38,1.53-9.75,24.81-8.51,11.55-78.12,17.36-148.17,17.45-70.06-.09-139.67-5.9-148.18-17.45-17.13-23.28-9.75-24.81-9.75-24.81Z" fill="#f9c2af"/>
  <path id="ombre" d="m142.78,251.79l-.22,3.18c2.63,2.46,10.13,8.84,21.13,14.78,12.14,7.15,24.8,9.44,35.05,9.44,9.37,0,19.45-.64,33.75-8.09,9.66-5.03,18.8-12.26,21.29-14.24,0-.01-.28-3.68-.28-3.68" fill="#452c20" opacity=".05"/>
  <g id="vetements">
    <path d="m377.48,400c0-13.13-1.16-32.97-1.16-45.06,0-17.38-10.64-27.23-26.62-35.92-15.97-8.69-89.4-27.74-89.4-27.74,0,52.52-60.31,54.36-60.31,54.36,0,0-64.68-3.67-64.68-56.19,0,0-69.05,20.88-85.02,29.57-15.97,8.69-26.62,18.54-26.62,35.92,0,12.09-1.16,34.38-1.16,45.06h354.96Z" fill="#553f4a"/>
    <path d="m260.3,291.28c-2.58,53.51-60.3,54.36-60.3,54.36,0,0-62.1-2.68-64.68-56.19l-18.84,5.3s5.59,68.83,83.52,68.83,80.99-66.74,80.99-66.74l-20.69-5.55Z" fill="#6a5b4c"/>
  </g>
  <path id="visage" d="m295.93,133.99c0,77.86-37.24,140.97-96.99,140.97s-97.46-63.12-97.46-140.97S138.96,22.65,198.7,22.65s97.22,33.48,97.22,111.34Z" fill="#ffc8b0"/>
  <g id="oreilles">
    <path id="oreille_droite_1" data-name="oreille droite 1" d="m103.78,141.3s-13.24-9.75-13.06,7.47c.18,16.34,18.1,42.12,18.1,42.12-1.82-9.72-3.31-20.38-4.2-31.89-.47-6.14-.74-12.05-.84-17.7Z" fill="#f8bfb0"/>
    <path id="oreille_gauche_1" data-name="oreille gauche 1" d="m288.65,190.89s18.76-27.18,18.88-43.77c.12-16.7-13.79-5.82-13.79-5.82-.21,5.07-.51,10.28-.94,15.62-.95,12.01-2.4,23.35-4.15,33.96Z" fill="#f8bfb0"/>
  </g>
  <g id="yeux">
    <circle id="oeil" cx="249.25" cy="133.76" r="8.04"/>
    <circle id="oeil-2" data-name="oeil" cx="149.48" cy="133.76" r="8.04"/>
  </g>
  <path id="nez_1" data-name="nez 1" d="m208.88,144.52s7.34,41.91,8.76,48c1.42,6.09-2.35,8.07-4.65,4.91-2.3-3.17-10.27,2.98-10.27,2.98-2.95,2.28-5.42,0-5.42,0,0,0-7.97-6.14-10.27-2.98s-6.08,1.18-4.65-4.91c1.42-6.09,8.76-48,8.76-48" fill="url(#Dégradé_sans_nom_13)"/>
  <path id="cheveux-2" data-name="cheveux" d="m210.46,8.81c-6.93-1.13-14.61-.92-20.92-.26-29.6,3.1-111.06,21.87-98.82,140.22,0,0,4.79,53.74,5.49,69.27,2.12-5.98,1.19-24.06.34-32.7-.5-8.08-1.42-19.49,3.03-28.72.34-.7.65-1.39.96-2.06,2.01-4.41,2.96-9.21,2.76-14.05-.95-23.3-.1-73.17,46.75-100.41,4.33-2.52,9.42-3.43,14.39-2.79,13.74,1.77,39.6,16.82,53.51,20.1,20.4,4.81,62.91,5.78,67.19,15.56,9.79,22.36,10.26,48.2,9.44,63.21-.37,6.75,1.14,13.47,4.46,19.36h0c5.01,8.93-.8,22.03-.8,30.13-.31,8.67-.38,27.73,2.11,33.57-.26-15.54,7.18-72.12,7.18-72.12C317.67,32.69,239.51,13.54,210.46,8.81Z" fill="#a67c52"/>
</svg>