<?xml version="1.0" encoding="UTF-8"?>
<svg id="Camilia" xmlns="http://www.w3.org/2000/svg" xmlns:xlink="http://www.w3.org/1999/xlink" viewBox="0 0 400 400">
  <defs>
    <linearGradient id="Dégradé_sans_nom_10" data-name="Dégradé sans nom 10" x1="194.35" y1="208.42" x2="194.96" y2="155.86" gradientUnits="userSpaceOnUse">
      <stop offset="0" stop-color="#ffab9c"/>
      <stop offset="1" stop-color="#ffc8b0"/>
    </linearGradient>
  </defs>
  <path id="cou" d="m43.26,342.77c52.02-6.65,85.26-40.82,85.26-40.82,16.4-19.37,13.36-85.07,13.36-85.07h105.13s-3.04,65.7,13.36,85.07c0,0,33.25,34.17,85.26,40.82,0,0,7.07,1.55-9.33,25.14-8.15,11.7-74.79,17.59-141.85,17.68-67.07-.09-133.71-5.98-141.86-17.68-16.4-23.59-9.34-25.14-9.34-25.14Z" fill="#f9c2af"/>
  <path id="ombre" d="m142.4,259.59c-.51,6.61,31.2,33.03,50.56,33.03,21.64,0,53.18-26.31,53.64-34.39" fill="none" opacity=".05" stroke="#452c20" stroke-miterlimit="10" stroke-width="2"/>
  <g id="vetements">
    <path d="m377.47,400c0-13.3-1.18-33.4-1.18-45.65,0-17.61-10.78-27.59-26.96-36.39-16.18-8.8-90.57-28.1-90.57-28.1,0,53.21-61.1,55.07-61.1,55.07,0,0-65.52-3.72-65.52-56.93,0,0-69.96,21.16-86.14,29.96-16.18,8.81-26.96,18.78-26.96,36.39,0,12.25-1.18,34.83-1.18,45.65h359.61Z" fill="#ffdcc0"/>
    <path d="m253.52,288.37c-2.02,41.93-34.32,52.83-48.86,55.61-4.4.84-8.9.88-13.31.1-15.34-2.72-53.46-13.8-55.55-57.05l-21.25,6.42s4.16,69.63,83.12,69.63,78.8-68.5,78.8-68.5l-22.95-6.22Z" fill="#f9e8d2"/>
  </g>
  <path id="visage" d="m201.51,291.21c77.9-23.95,86.92-136.59,86.92-136.59,0,0,12.91-116.17-93.97-117.72-106.88,1.55-93.97,117.72-93.97,117.72,0,0,8.03,112.01,84.96,136.65,2.51.81,12.98.89,16.06-.06Z" fill="#ffc8b0"/>
  <g id="cheveux">
    <path d="m277.58,201.98s30.94-6.62,43.46,9.45c13.58,17.44,15.79,45.68-11.39,77.19-19.98,23.16-39.95,14.08-46.92,10.73-16.77-8.07-19.59-33.72-19.59-33.72,4.61-4.75,9.45-11.37,14.23-18.33,2.61-3.79,4.86-7.49,6.8-10.99,1.8-3.58,3.58-7.47,5.27-11.66,3.25-8.07,6.55-15.87,8.14-22.68Z" fill="#534741"/>
    <path d="m194.44,8.02c-123.25.37-108.46,140.9-106.93,146.47,1.54,5.57,15.16,16.54,15.16,16.54,0,0-13.46-126.21,85.99-130.76-.37.1-.6.17-.6.17,0,0,26.58,27.14,78.02,34.73,26.61,38.77,20.9,95.86,20.9,95.86,0,0,12.73-10.97,14.27-16.54,1.54-5.57,17.49-146.83-106.81-146.47Z" fill="#534741"/>
  </g>
  <g id="oreilles">
    <path id="oreille_gauche_2" data-name="oreille gauche 2" d="m100.86,157.75s-5.12-9.6-11.8-6.47c-3.03,1.42.84,24.22.84,24.22,2.05,16.4,22.82,30.42,22.82,30.42" fill="#f8bfb0"/>
    <path id="oreille_droite_2" data-name="oreille droite 2" d="m288.36,157.75s5.12-9.6,11.8-6.47c3.03,1.42-.84,24.22-.84,24.22-2.05,16.4-22.82,30.42-22.82,30.42" fill="#f8bfb0"/>
  </g>
  <g id="yeux">
    <circle id="oeil" cx="246.23" cy="142.62" r="8.04"/>
    <circle id="oeil-2" data-name="oeil" cx="142.67" cy="142.62" r="8.04"/>
  </g>
  <path id="nez_1" data-name="nez 1" d="m205.1,155.98s8.8,35.91,10.51,41.12c1.71,5.21-2.82,6.92-5.58,4.2-2.76-2.71-12.32,6.25-12.32,6.25-3.54,1.95-6.5,0-6.5,0,0,0-9.56-8.96-12.32-6.25-2.76,2.71-7.29,1.01-5.58-4.2,1.71-5.21,10.51-41.12,10.51-41.12" fill="url(#Dégradé_sans_nom_10)"/>
</svg>