<?xml version="1.0" encoding="UTF-8"?>
<svg id="Faris" xmlns="http://www.w3.org/2000/svg" xmlns:xlink="http://www.w3.org/1999/xlink" viewBox="0 0 400 400">
  <defs>
    <linearGradient id="Dégradé_sans_nom_5" data-name="Dégradé sans nom 5" x1="204.71" y1="205.29" x2="204.71" y2="155.85" gradientUnits="userSpaceOnUse">
      <stop offset=".1" stop-color="#ffab9c"/>
      <stop offset="1" stop-color="#ffc8b0" stop-opacity="0"/>
    </linearGradient>
  </defs>
  <path id="cou" d="m47.19,344.2c53.67-6.48,87.96-39.8,87.96-39.8,16.92-18.89,13.79-82.94,13.79-82.94h108.47s-3.13,64.05,13.78,82.94c0,0,34.3,33.32,87.96,39.8,0,0,7.29,1.51-9.63,24.51-8.41,11.41-77.16,17.15-146.34,17.24-69.2-.09-137.95-5.83-146.36-17.24-16.92-22.99-9.63-24.51-9.63-24.51Z" fill="#f9c2af"/>
  <path id="ombre" d="m136.26,242.78c.92-.54,8.09,20.99,22.58,31.99,15.09,11.45,25.95,12.29,46,12.29,18.38,0,24.91,0,43.14-10.92,17.51-10.49,22.96-27.04,25.44-33.36" fill="none" opacity=".85" stroke="#ddab9e" stroke-miterlimit="10"/>
  <g id="vetements">
    <path d="m380.36,400c0-12.97-1.15-32.56-1.15-44.51,0-17.17-10.51-26.89-26.29-35.48-15.77-8.58-88.29-27.4-88.29-27.4,0,51.88-59.57,53.69-59.57,53.69,0,0-63.88-3.62-63.88-55.5,0,0-68.2,20.63-83.97,29.21-15.78,8.59-26.29,18.31-26.29,35.48,0,11.94-1.15,33.96-1.15,44.51h350.59Z" fill="#e5d9d6"/>
    <path d="m264.63,292.62c-2.55,52.85-59.56,53.69-59.56,53.69,0,0-61.33-2.65-63.88-55.5l-18.61,5.23s5.52,67.98,82.49,67.98,79.99-65.92,79.99-65.92l-20.43-5.48Z" fill="#a3a2a2"/>
  </g>
  <path id="visage" d="m294.32,142.71c0,58.96-13.13,108.54-43.05,131.18-12.13,9.18-30.67,12.39-46.55,12.39-21.5,0-41.02-4.77-55.42-20.97-22.5-25.31-34.18-72.07-34.18-122.59,0-82.87,34.54-118.51,89.61-118.51s89.61,35.64,89.61,118.51Z" fill="#ffc8b0"/>
  <g id="yeux">
    <circle id="oeil" cx="248.4" cy="143.32" r="7.83"/>
    <circle id="oeil-2" data-name="oeil" cx="157.96" cy="143.32" r="7.83"/>
  </g>
  <path id="nez_1" data-name="nez 1" d="m216.53,155.85s9.76,33.86,11.66,38.77c1.89,4.92-3.13,6.52-6.19,3.96-3.06-2.56-13.67,5.89-13.67,5.89-3.92,1.84-7.21,0-7.21,0,0,0-10.61-8.45-13.67-5.89-3.06,2.56-8.09.95-6.19-3.96,1.89-4.92,11.66-38.77,11.66-38.77" fill="url(#Dégradé_sans_nom_5)"/>
  <path id="cheveux" d="m204.71,8.01c-112.67,0-96.93,136.68-96.93,136.68l7.33,2.94s-.51-49.05,22.16-85.31c5.61,8.77,24.69,14.86,44.66,21.21,42.74,13.58,79.72,12.45,103.82,9.45,8.69,28.78,8.39,55.68,8.39,55.68l8.29-3.99S317.39,8.01,204.71,8.01Z" fill="#452c20"/>
  <g id="oreilles">
    <path id="oreille_gauche_2" data-name="oreille gauche 2" d="m294.14,148.67s8.34-8.86,11.98-2.22c1.07,1.95.25,18.75.25,18.75-2.13,15.99-14.89,22.11-14.89,22.11" fill="#f8bfb0"/>
    <path id="oreille_gauche_2-2" data-name="oreille gauche 2" d="m118.33,187.3s-12.58-6.12-14.71-22.11c0,0-1.66-15.61-.59-17.56,3.64-6.64,12.08,0,12.08,0" fill="#f8bfb0"/>
  </g>
  <path id="moustache" d="m182.8,215.68l16.96-4.04c3.29-.78,6.75-.8,10.04-.03l16.82,4.07" fill="none" opacity=".8" stroke="#603813" stroke-miterlimit="10" stroke-width="2"/>
  <path id="barbe" d="m290.85,191.28c-1.21-.35-6.64,17.65-19.8,42.86-10.79,20.67-33.38,39.99-65.99,41.3-17.4.7-36.34-5.44-50.07-18.87-8.41-8.23-19.34-29.14-20.58-32.08-4.72-11.2-15.86-35.01-15.47-32.98,1.17,5.97,4.46,25.16,13.36,46.61,5.3,12.78,15.4,25.58,15.4,25.58,0,.23-.69,5.72-.69,5.72,5.3,4.38,20.35,27.16,57.83,27.16s48.07-17.29,55.2-22.51c0-.01-.9-6.11-.9-6.11,4.18-3.73,12.98-17.14,16.83-25.51,1.59-3.46,2.8-6.03,3.56-7.83,1.32-3.17,5.02-12.33,8.96-30,1.56-7.01,2.36-13.32,2.36-13.32Z" fill="#452c20" opacity=".15"/>
</svg>