<?xml version="1.0" encoding="UTF-8"?>
<svg id="Guillaume" xmlns="http://www.w3.org/2000/svg" xmlns:xlink="http://www.w3.org/1999/xlink" viewBox="0 0 400 400">
  <defs>
    <linearGradient id="Dégradé_sans_nom_10" data-name="Dégradé sans nom 10" x1="200.73" y1="224.28" x2="201.39" y2="168.05" gradientUnits="userSpaceOnUse">
      <stop offset="0" stop-color="#ffab9c"/>
      <stop offset="1" stop-color="#ffc8b0"/>
    </linearGradient>
  </defs>
  <path id="cou" d="m50.86,347c50.97-6.16,83.55-37.8,83.55-37.8,16.07-17.94,13.09-78.77,13.09-78.77h103.02s-2.98,60.84,13.09,78.77c0,0,32.58,31.64,83.55,37.8,0,0,6.92,1.44-9.15,23.28-7.98,10.84-73.28,16.29-139,16.37-65.72-.08-131.02-5.54-139.01-16.37-16.07-21.84-9.15-23.28-9.15-23.28Z" fill="#f9c2af"/>
  <g id="vetements">
    <path d="m367.3,400c0-12.32-1.09-30.93-1.09-42.27,0-16.31-9.99-25.54-24.97-33.7-14.98-8.15-83.86-26.02-83.86-26.02,0,49.27-56.57,50.99-56.57,50.99,0,0-60.67-3.44-60.67-52.71,0,0-64.78,19.59-79.76,27.74-14.98,8.16-24.97,17.39-24.97,33.7,0,11.34-1.09,32.25-1.09,42.27h332.98Z" fill="#213254"/>
    <path d="m257.38,298.01c-2.42,50.2-56.57,50.99-56.57,50.99,0,0-58.25-2.51-60.68-52.71l-17.67,4.97s5.24,64.57,78.35,64.57,75.98-62.61,75.98-62.61l-19.41-5.21Z" fill="#466770"/>
  </g>
  <path id="ombre" d="m147.87,269.07c0-.43-5,1.92,9.04,11.99,13,9.32,24.86,13.64,43.9,13.64,17.39,0,27.62-3.8,40.76-12.34,10.87-7.07,9.64-10.86,9.64-10.86" fill="none" opacity=".05" stroke="#452c20" stroke-miterlimit="10" stroke-width="2"/>
  <g id="oreilles">
    <path id="oreille_droite_1" data-name="oreille droite 1" d="m103.96,160.55s-10.8-8.15-10.61,8.83c.18,16.12,17.85,41.54,17.85,41.54" fill="#f8c8b0"/>
    <path id="oreille_gauche_1" data-name="oreille gauche 1" d="m295.57,163.93s11.74-12.66,11.62,3.82c-.12,16.36-18.62,43.17-18.62,43.17" fill="#f8bfb0"/>
  </g>
  <path id="visage" d="m295.75,154.79c0,76.79-36.73,139.05-95.67,139.05s-96.13-62.25-96.13-139.05,36.96-109.82,95.9-109.82,95.9,33.02,95.9,109.82Z" fill="#ffc8b0"/>
  <g id="yeux">
    <ellipse id="oeil" cx="252.76" cy="154.57" rx="8.05" ry="7.44"/>
    <ellipse id="oeil-2" data-name="oeil" cx="149.01" cy="154.57" rx="8.05" ry="7.44"/>
  </g>
  <path id="nez_1" data-name="nez 1" d="m210.66,168.16s8.15,41.34,9.73,47.34c1.58,6-2.61,7.96-5.17,4.84-2.55-3.12-11.41,2.94-11.41,2.94-3.27,2.25-6.02,0-6.02,0,0,0-8.85-6.06-11.41-2.94-2.55,3.12-6.75,1.16-5.17-4.84,1.58-6,9.73-47.34,9.73-47.34" fill="url(#Dégradé_sans_nom_10)"/>
  <g id="cheveux">
    <path d="m263.48,32.95c-2.39-5.06-5.49-8.01-7.18-13.71-1.4,3.16-2.26,5.33-3.07,7.61-.97-.5-1.95-.99-2.92-1.45-1.79-2.86-3.58-5.46-4.74-9.34-.06.14-.12.28-.18.42-1.13,1.96-1.85,3.85-2.39,5.73-2.18-.85-4.33-1.62-6.45-2.31-.46-2.13-.91-4.34-1.75-6.83-1.04,1.77-1.74,3.47-2.28,5.16-1.24-2.67-2.4-5.35-3.44-8.05-.66,2.35-1.39,4.69-2.19,7.01-1.55-.37-3.07-.7-4.55-.99-1.44-3.05-2.79-6.12-3.98-9.21-.64,2.29-1.36,4.56-2.13,6.82-1.35-2.15-2.69-4.3-4.04-6.45-1.64,2.15-2.35,4.52-2.8,6.95-.57-.05-1.13-.1-1.66-.14-2.09-3.33-4.17-6.66-6.26-9.99-2.24,2.94-2.75,6.29-3.22,9.66-.28,0-.52.01-.69.02-4.6-.28-121.23-6-105.94,141.88,0,0,.3,5.43,5.23,9.44,8.48,6.9,10.22,14.28,10.22,14.28,0,0-8.52-59.44,19.58-98.19-.19,3-.04,5.96.97,8.81,2.18-6.77,5.02-13.32,8.43-19.55,1.77-1.68,3.64-3.29,5.62-4.82.07.9.13,1.81.18,2.72-1.12,5.58-2.25,11.21-3.44,17.27.95-3.03,2.32-5.85,3.92-8.56.4,5.8,1.16,11.5,3.49,16.79,4.05-8.55,8.1-17.09,12.15-25.64-.42,3.02-.51,6.02.29,8.98,2.04-5.03,4.46-9.91,7.2-14.59,1.95,9.1,3.58,18.26,4.87,27.47,1.35-4.45,2.81-8.87,4.34-13.27.34,1.89.8,3.75,1.45,5.58,4.06-7.14,8.11-14.28,12.17-21.42-.64,7.37-1.11,14.68,1.21,21.61,2.47-9.18,5.45-18.22,8.92-27.08,1.08,8.28,1.9,16.6,2.45,24.93,2.21-5.73,4.61-11.38,7.1-16.99,1.27,6.13,2.64,12.25,4.12,18.33,2.57-10.6,5.39-21.14,8.44-31.62.26.04.53.08.79.12-1.32,8.13-2.79,16.21-.79,24.09,2.23-6.39,4.73-12.69,7.46-18.88,1.25,3.72,2.49,7.45,3.74,11.17l4.48-12.99c1.34.41,2.64.84,3.92,1.3.87,6.77,1.86,13.53,2.98,20.27,1.8-5.59,3.68-11.15,5.62-16.69,57.16,27.68,42.57,104.52,44.51,121.62,0,0,2.3-10.26,9.46-17.42,2.81-2.81,4.29-6.07,4.52-8.72,6.03-68-17.12-103.07-43.71-121.15Z" fill="#a67c52"/>
  </g>
  <g id="moustache" data-name="moustache 1" opacity=".2">
    <path d="m230.27,236.49c-4.11-1.88-8.51-3.17-12.95-3.93-4.49-.77-9.32-1.13-13.76.15-2.37.68-4.49-.3-6.85-.62-2.16-.29-4.35-.27-6.52-.07-4.11.38-8.17,1.34-12.1,2.58-2.29.72-4.58,1.52-6.78,2.49-.88.39-.12,1.68.76,1.3,5.05-2.22,11.13-3.99,16.79-4.72,2.08-.26,4.19-.38,6.28-.24,2.13.14,4.12.92,6.24,1.09,1.04.08,1.91-.18,2.91-.45,1.15-.31,2.33-.49,3.52-.59,2.35-.19,4.72-.07,7.05.22,5.01.62,10.07,1.99,14.66,4.09.87.4,1.63-.89.76-1.3h0Z"/>
  </g>
</svg>