<?xml version="1.0" encoding="UTF-8"?>
<svg id="Hugo" xmlns="http://www.w3.org/2000/svg" xmlns:xlink="http://www.w3.org/1999/xlink" viewBox="0 0 400 400">
  <defs>
    <linearGradient id="Dégradé_sans_nom_7" data-name="Dégradé sans nom 7" x1="200" y1="198.15" x2="200" y2="143.58" gradientUnits="userSpaceOnUse">
      <stop offset=".1" stop-color="#ffab9c"/>
      <stop offset="1" stop-color="#ffc8b0" stop-opacity="0"/>
    </linearGradient>
  </defs>
  <path id="cou" d="m36.42,342.19c55.6-6.72,91.14-41.24,91.14-41.24,17.53-19.57,14.29-85.93,14.29-85.93l57.78-1.32,54.6,1.32s-3.25,66.37,14.28,85.93c0,0,35.54,34.52,91.14,41.24,0,0,7.55,1.57-9.98,25.39-8.71,11.82-79.94,17.77-151.63,17.86-71.7-.09-142.93-6.04-151.64-17.86-17.53-23.82-9.98-25.39-9.98-25.39Z" fill="#f9c2af"/>
  <path id="ombre" d="m143.15,258.71c-.68-.62-1.87-1.9-2.45-2.45l-.39,4.76c5.49,4.53,9.89,12.87,24.25,21.12,15.75,6.94,21.88,7.53,35.25,7.53s26.07-2.37,35.98-8.24c9.59-5.69,13.08-10.35,20.46-15.76,0-.01.29,2.23-.2-1.57-.19-1.45-.3-2.68-.4-3.59-.8.62-1.5,1.59-2.46,2.25" fill="#452c20" opacity=".2"/>
  <g id="vetements">
    <path d="m381.63,400c0-13.44-1.19-33.74-1.19-46.11,0-17.79-10.89-27.87-27.24-36.76-16.34-8.89-91.48-28.39-91.48-28.39,0,53.75-61.72,55.63-61.72,55.63,0,0-66.19-3.75-66.19-57.5,0,0-70.67,21.37-87.01,30.26-16.35,8.9-27.24,18.97-27.24,36.76,0,12.37-1.19,35.18-1.19,46.11h363.25Z" fill="#463d39"/>
    <path d="m261.71,288.74c-2.64,54.76-61.71,55.63-61.71,55.63,0,0-63.55-2.74-66.19-57.5l-19.28,5.42s5.72,70.43,85.47,70.43,82.88-68.3,82.88-68.3l-21.17-5.68Z" fill="#60605e"/>
  </g>
  <path id="visage" d="m292.48,138.42c0,56.83-13.6,104.61-44.61,126.43-12.57,8.85-31.78,11.94-48.24,11.94-22.27,0-42.5-4.59-57.43-20.21-23.31-24.39-35.42-69.46-35.42-118.15,0-79.87,35.79-114.21,92.84-114.21s92.84,34.34,92.84,114.21Z" fill="#ffc8b0"/>
  <g id="yeux">
    <ellipse id="oeil" cx="246.75" cy="139.73" rx="7.25" ry="7.55"/>
    <ellipse id="oeil-2" data-name="oeil" cx="153.25" cy="139.73" rx="7.25" ry="7.55"/>
  </g>
  <path id="nez_1" data-name="nez 1" d="m211.21,143.58s9.27,37.37,11.06,42.79c1.8,5.43-2.97,7.2-5.88,4.37-2.9-2.82-12.98,6.5-12.98,6.5-3.72,2.03-6.84,0-6.84,0,0,0-10.07-9.33-12.98-6.5-2.9,2.82-7.68,1.05-5.88-4.37,1.8-5.43,11.06-42.79,11.06-42.79" fill="url(#Dégradé_sans_nom_7)"/>
  <path id="cheveux" d="m199.63,8.01c-116.74,0-100.43,131.73-100.43,131.73l7.59,2.83s2.98-60.94,24.02-78.53c3.52,2.2,51.85-2.33,72.55,3.79,44.28,13.09,60.22,23.68,81.3,25.76,9,27.74,7.63,49.97,7.63,49.97l8.59-3.84S316.38,8.01,199.63,8.01Z" fill="#452c20"/>
  <g id="oreilles">
    <path id="oreille_gauche_2" data-name="oreille gauche 2" d="m289.54,180.81s13.22-5.9,15.43-21.31c0,0,.85-16.19-.26-18.07-3.77-6.4-12.41,2.14-12.41,2.14" fill="#f8bfb0"/>
    <path id="oreille_gauche_2-2" data-name="oreille gauche 2" d="m106.8,142.58s-8.75-6.4-12.52,0c-1.11,1.88.61,16.93.61,16.93,2.2,15.41,15.24,21.31,15.24,21.31" fill="#f8bfb0"/>
  </g>
  <path id="moustache" d="m174.06,212.69l22.17-5.28c2.34-.56,4.79-.56,7.13-.01l22.58,5.3" fill="none" stroke="#603813" stroke-miterlimit="10" stroke-width="2"/>
  <path id="barbe" d="m224.56,248.75c-1.53.56-3.23.29-4.52-.7-5.24-4.05-12.28-7.8-20.41-7.8-7.38,0-14.25,3.8-19.5,7.89-1.27.99-2.95,1.26-4.46.71-47.61-17.33-66.7-81.93-66.7-81.93,0,0,4.49,116.08,91.22,116.26,87.16.18,90.34-116.26,90.34-116.26,0,0-18.63,64.33-65.98,81.84Z" fill="#603813"/>
</svg>