<?xml version="1.0" encoding="UTF-8"?>
<svg id="Khadidja" xmlns="http://www.w3.org/2000/svg" xmlns:xlink="http://www.w3.org/1999/xlink" viewBox="0 0 400 400">
  <defs>
    <linearGradient id="Dégradé_sans_nom_6" data-name="Dégradé sans nom 6" x1="200.46" y1="196.83" x2="201.04" y2="146.71" gradientUnits="userSpaceOnUse">
      <stop offset=".1" stop-color="#e2a39a"/>
      <stop offset="1" stop-color="#eab8a7" stop-opacity="0"/>
    </linearGradient>
  </defs>
  <path id="cou" d="m59.5,345.6c48.61-6.6,79.68-40.52,79.68-40.52,15.33-19.23,12.49-84.44,12.49-84.44h98.25s-2.84,65.21,12.49,84.44c0,0,31.07,33.92,79.68,40.52,0,0,6.6,1.54-8.72,24.95-7.61,11.61-69.89,17.46-132.57,17.55-62.68-.09-124.96-5.94-132.58-17.55-15.33-23.41-8.72-24.95-8.72-24.95Z" fill="#e5b3a5"/>
  <g id="vetements">
    <g>
      <path d="m28.03,400v-46.41c0-17.2,10.32-26.95,25.8-35.56,15.48-8.6,85.03-31.14,85.03-31.14,0,51.99,60.13,51.22,60.13,51.22,0,0,60.12.76,60.12-51.22,0,0,69.54,22.55,85.03,31.14,15.48,8.61,25.8,18.36,25.8,35.56v46.41H28.03Z" fill="#282523"/>
      <g>
        <polygon points="259.12 286.89 292.42 295.71 250.46 372.33 200.79 337.98 259.12 286.89" fill="#51504f"/>
        <polygon points="138.87 286.89 104.2 296.18 147.52 372.33 197.19 337.98 138.87 286.89" fill="#51504f"/>
      </g>
      <g>
        <polygon points="196.92 338.04 196.93 338.04 201.06 338.04 201.07 338.04 224.84 355.17 207.6 380.14 201.47 380.14 196.52 380.14 190.39 380.14 173.15 355.17 196.92 338.04"/>
        <polygon points="189.44 400 187.24 375.57 199.02 380.14 210.75 375.57 208.54 400 189.44 400"/>
      </g>
    </g>
  </g>
  <path id="ombre" d="m151.83,243.17c9.18,10.38,22.76,18.87,29.05,22.23,6.39,3.41,14.5,5.15,20.74,5.15,6.09,0,10.11-1.45,13.06-2.68,7.83-3.25,16.51-8.29,22-12.16,3.99-2.81,9.92-7.5,14.73-13.83" fill="none" opacity=".05" stroke="#452c20" stroke-miterlimit="10" stroke-width="2"/>
  <path id="visage" d="m203.62,269.43c4.08,0,8.13-.81,11.93-2.3,73.86-29.1,81.55-126.49,81.55-126.49,0,0,13.23-125.26-96.3-126.93-109.53,1.67-96.3,126.93-96.3,126.93,0,0,9.03,96.51,81.84,126.36,3.92,1.61,8.12,2.45,12.35,2.44h4.93Z" fill="#eab8a7"/>
  <g id="cheveux">
    <path d="m145.31,292.53c1.59-5.91,3.03-9.13,4.15-16.2,1.89-11.89,2.44-22.7,2.33-32.04-11-13.31-8.35-7.2-15.16-17.65-3.03-4.64-18.4-24.28-23.99-50.1-2.14-9.89-5.54-15.86-6.34-29.67-1.15-19.89,8.63-49.8,21.27-71.03h0c3.56,1.03,16.76,5.49,26.48,6.47,2.19.22,4.07-.4,7.87-.4,9.51,0,10.36,1.63,17.1,2.07,10.59.7,11.89-3.14,23.35-2.74,9.27.33,9.9,2.97,17.86,2.06,3.98-.46,7.12-1.5,13.48-1.63,4.25-.09,10.39.37,13.71-.09,12.14-1.7,25.46-9.59,25.47-9.6h0c14.69,22.28,23.63,48.03,22.64,70.02-.31,6.88-11.21,46.72-12.99,52.62-.26,3.36-22.46,35.81-32.71,50.64-3.55,5.14,2.91,38.06,5.71,44.75,1.45,3.47,56.91,15.1,56.91,15.1-.43-17.67-6.47-17.88-10.77-32.87-4.39-15.3-1.05-30.19,4.43-44.65,5.04-13.28,9.08-34.69,5.71-55.36-.2-1.23,7.67-164.23-110.23-164.23-125.75,0-110.15,162.79-110.15,162.79,2.21,11.31,9.04,37.04,5.94,46.23-5.04,14.97-8.91,28.13-3.87,40.53,8.28,20.36,1.37,35.17-9.86,48.24" fill="#442f2e"/>
  </g>
  <g id="oreilles">
    <path id="oreille_gauche_2" data-name="oreille gauche 2" d="m106.03,143.45s-7.36-4.8-10.18,2.6c-1.21,3.18.66,14.12.66,14.12,2.1,18.36,22.42,34.41,22.42,34.41" fill="#edb4a9"/>
    <path id="oreille_gauche_2-2" data-name="oreille gauche 2" d="m295.37,143.5s7.58-4.85,10.4,2.56c1.21,3.18-.66,14.12-.66,14.12-2.1,18.36-22.59,34.35-22.59,34.35" fill="#edb4a9"/>
  </g>
  <g id="lunette">
    <path d="m188.17,130.41s-6.97-11.87-18.77-15.39c-11.8-3.52-55.23-6.94-56.31,15.39-1.07,22.33,17.16,36.41,17.16,36.41,0,0,24.67,7.04,43.44,0,0,0,17.16-12.47,14.48-36.41Z" fill="none" stroke="#68604c" stroke-miterlimit="10"/>
    <path d="m213.82,130.41s6.97-11.87,18.77-15.39c11.8-3.52,55.23-6.94,56.31,15.39,1.07,22.33-17.16,36.41-17.16,36.41,0,0-24.67,7.04-43.44,0,0,0-17.16-12.47-14.48-36.41Z" fill="none" stroke="#68604c" stroke-miterlimit="10"/>
    <path d="m188.45,135.88s9.95-5.99,25.16,0" fill="none" stroke="#68604c" stroke-miterlimit="10"/>
    <line x1="113.61" y1="132.77" x2="106.91" y2="132.77" fill="none" stroke="#68604c" stroke-miterlimit="10"/>
    <line x1="290.21" y1="132.77" x2="294.67" y2="132.77" fill="none" stroke="#68604c" stroke-miterlimit="10"/>
  </g>
  <g id="yeux">
    <circle id="oeil" cx="252.86" cy="136.5" r="8.04"/>
    <circle id="oeil-2" data-name="oeil" cx="148.72" cy="136.5" r="8.04"/>
  </g>
  <path id="nez_1" data-name="nez 1" d="m210.8,146.82s8.47,34.25,10.11,39.22c1.64,4.97-2.72,6.6-5.37,4.01-2.65-2.59-11.85,5.96-11.85,5.96-3.4,1.86-6.25,0-6.25,0,0,0-9.2-8.55-11.85-5.96-2.65,2.59-7.01.96-5.37-4.01,1.64-4.97,10.11-39.22,10.11-39.22" fill="url(#Dégradé_sans_nom_6)"/>
</svg>