<?xml version="1.0" encoding="UTF-8"?>
<svg id="Lucas" xmlns="http://www.w3.org/2000/svg" xmlns:xlink="http://www.w3.org/1999/xlink" viewBox="0 0 400 400">
  <defs>
    <linearGradient id="Dégradé_sans_nom_13" data-name="Dégradé sans nom 13" x1="199.57" y1="192.66" x2="200.23" y2="135.72" gradientUnits="userSpaceOnUse">
      <stop offset=".1" stop-color="#ffab9c"/>
      <stop offset="1" stop-color="#ffc8b0" stop-opacity="0"/>
    </linearGradient>
  </defs>
  <path id="cou" d="m33.71,340.82c56.91-6.87,93.27-42.2,93.27-42.2,17.94-20.03,14.62-87.94,14.62-87.94h115.01s-3.32,67.92,14.61,87.94c0,0,36.38,35.33,93.27,42.2,0,0,7.73,1.61-10.21,25.99-8.91,12.1-81.81,18.19-155.18,18.28-73.37-.09-146.28-6.18-155.19-18.28-17.94-24.38-10.21-25.99-10.21-25.99Z" fill="#f9c2af"/>
  <path id="ombre" d="m141.57,240.57l-.14,4.51c2.7,2.57,9.74,14.42,21.06,20.64,12.5,7.49,24.93,10.05,35.48,10.05,9.64,0,19.19-.24,33.91-8.04,9.94-5.27,22.53-19.39,25.09-21.47,0-.01-.28-4.57-.28-4.57" fill="#452c20" opacity=".05"/>
  <g id="vetements">
    <path d="m386.99,399.98c0-13.75-1.22-34.53-1.22-47.19,0-18.21-11.15-28.52-27.87-37.62-16.72-9.1-93.62-29.05-93.62-29.05,0,55.01-63.16,56.93-63.16,56.93,0,0-67.74-3.84-67.74-58.85,0,0-72.32,21.87-89.04,30.97-16.73,9.1-27.87,19.42-27.87,37.62,0,12.66-1.22,36.01-1.22,47.19h371.75Z" fill="#acacbf"/>
    <path d="m264.27,286.12c-2.7,56.04-63.16,56.93-63.16,56.93,0,0-65.04-2.81-67.74-58.85l-19.73,5.55s5.86,72.08,87.47,72.08,84.82-69.9,84.82-69.9l-21.66-5.81Z" fill="#999593"/>
  </g>
  <path id="visage" d="m294.46,124.79c0,65.04-36.53,147.64-95.12,147.64s-95.58-80.72-95.58-147.64c0-81.54,36.76-116.61,95.35-116.61s95.35,35.06,95.35,116.61Z" fill="#ffc8b0"/>
  <path id="cheveux" d="m211,8.17c-6.87-.44-15.47.19-21.5.17-43.44-.15-89,26.18-88.99,105.08,0,6.1-.16,13.5,1.92,17.58l1.86,3.38c0-23.39,4.89-43.09,16-49.55,6.5-3.78,23.62-33.76,44.59-40.03,6.86-2.05,11.89-3.17,16.73-3.7,8.24-.91,29.1-.03,37.2-1.09,10.9-1.42,23.22-.25,30.29,3.38,19.2,9.88,22.55,31.6,33.39,40.03,9.5,7.38,12.39,35.21,12.38,50.92l1.35-1.72c2.39-4.72,2.99-16.37,2.72-22.01-3.12-64.87-46.71-99.79-87.95-102.43Z" fill="#a67c52"/>
  <g id="oreilles">
    <path id="oreille_droite_1" data-name="oreille droite 1" d="m104.4,132.38s-10.84-5.32-10.66,12.71c.17,17.11,19.57,39.29,19.57,39.29-2.62-10.15-4.3-14.79-6.34-27.42-.46-6.43-2.47-18.67-2.57-24.58Z" fill="#f8bfb0"/>
    <path id="oreille_gauche_1" data-name="oreille gauche 1" d="m285.82,184.39s19.9-23.36,20.02-40.73c.12-17.5-10.96-12.65-10.96-12.65-.2,5.31-2.22,16.51-2.64,22.1-1.8,12.52-3.91,19.91-6.42,31.28Z" fill="#f8bfb0"/>
  </g>
  <g id="yeux">
    <circle id="oeil" cx="249.84" cy="131.65" r="7.9"/>
    <circle id="oeil-2" data-name="oeil" cx="152.38" cy="131.65" r="7.9"/>
  </g>
  <path id="nez_1" data-name="nez 1" d="m209.13,135.83s7.84,41.87,9.36,47.94c1.52,6.08-2.52,8.06-4.97,4.9-2.46-3.16-10.98,2.97-10.98,2.97-3.15,2.27-5.79,0-5.79,0,0,0-8.52-6.14-10.98-2.97-2.46,3.16-6.5,1.18-4.97-4.9,1.52-6.08,9.36-47.94,9.36-47.94" fill="url(#Dégradé_sans_nom_13)"/>
  <g id="lunette">
    <path d="m185.33,137.45c2.03-9.55-1.28-19.56-9.01-25.55-.39-.3-.99-.67-1.72-1.07-7.09-3.92-15.21-5.5-23.29-4.84-11.7.95-25.45,5.03-29.74,16.94-5.07,14.08-1.02,22.39,3.49,28.73,3.83,5.37,9.73,8.96,16.25,10.03,5.66.93,13.27,1.62,20.87.62,7.28-.96,13.86-5.15,17.73-11.39,2.15-3.48,4.24-7.97,5.41-13.47Z" fill="none" stroke="#68604c" stroke-miterlimit="10"/>
    <path d="m215.25,136.84c-2.03-9.55,1.28-19.56,9.01-25.55.39-.3.99-.67,1.72-1.07,7.09-3.92,15.21-5.5,23.29-4.84,11.7.95,25.45,5.03,29.74,16.94,5.07,14.08,1.02,22.39-3.49,28.73-3.83,5.37-9.73,8.96-16.25,10.03-5.66.93-13.27,1.62-20.87.62-7.28-.96-13.86-5.15-17.73-11.39-2.15-3.48-4.24-7.97-5.41-13.47Z" fill="none" stroke="#68604c" stroke-miterlimit="10"/>
    <path d="m185.92,128.61s14.33-5.99,29.02,0" fill="none" stroke="#68604c" stroke-miterlimit="10"/>
    <line x1="122.56" y1="120.69" x2="104.4" y2="120.69" fill="none" stroke="#68604c" stroke-miterlimit="10"/>
    <line x1="278.33" y1="120.69" x2="294.88" y2="120.69" fill="none" stroke="#68604c" stroke-miterlimit="10"/>
  </g>
</svg>