<?xml version="1.0" encoding="UTF-8"?>
<svg id="Marco" xmlns="http://www.w3.org/2000/svg" xmlns:xlink="http://www.w3.org/1999/xlink" viewBox="0 0 400 400">
  <defs>
    <linearGradient id="Dégradé_sans_nom_5" data-name="Dégradé sans nom 5" x1="198.86" y1="192.07" x2="198.86" y2="139.28" gradientUnits="userSpaceOnUse">
      <stop offset=".1" stop-color="#ffab9c"/>
      <stop offset="1" stop-color="#ffc8b0" stop-opacity="0"/>
    </linearGradient>
  </defs>
  <path id="cou" d="m31.61,340.4c57.31-6.92,93.93-42.5,93.93-42.5,18.07-20.17,14.72-88.56,14.72-88.56h115.82s-3.35,68.4,14.72,88.56c0,0,36.63,35.58,93.93,42.5,0,0,7.78,1.62-10.28,26.17-8.98,12.18-82.39,18.31-156.27,18.41-73.89-.09-147.3-6.22-156.28-18.41-18.07-24.55-10.28-26.17-10.28-26.17Z" fill="#f9c2af"/>
  <path id="ombre" d="m138.52,255.79s9.42,10.18,25.59,15.96c7.78,3.04,18.95,9.29,35.01,9.36,17.41.08,30.9-6.78,38.76-10.48,19.72-9.29,26.44-14.85,26.44-14.85" fill="none" opacity=".05" stroke="#1c1a1a" stroke-miterlimit="10" stroke-width="2"/>
  <path id="visage" d="m286.23,131.08c0,61.19.65,101.47-28.19,128.7-6.39,6.04-38.14,20.19-58.23,20.19s-51.06-12.87-59.18-21.77c-23.99-26.29-27.31-73.94-27.31-126.37,0-86,27.69-123.82,86.49-123.82s86.42,37.07,86.42,123.07Z" fill="#ffc8b0"/>
  <path id="cheveux" d="m325.39,304.51c3.04-11.04,3.05-21.57-3.35-31.16-11.88-17.83.95-32.38-12.33-64.01-10.23-24.37,1.02-43.25-.06-61.26-2.02-86.8-44.97-140.07-109.84-140.07-108.58,0-109.51,132.35-109.29,134.95,2.02,24.14-.74,31.86-4.14,44.28-9.48,34.62,12.84,55.62-3.79,86.1-5.44,9.97-4.27,23.81-.34,29.09,14.98,20.15,43.58-2.4,49.93-16.15,13.64-29.52,2.92-29.56,4.94-44.43,2.56-18.83-13.25-34.4-13.28-55.9-.01-8.94-4.86-17.14-6.37-24.28-3.1-14.68,1.5-29.55,4.94-44.15,2.97-12.57,2.58-21.94,7.33-35.22,1.34-3.76,3.36-7.43,5.32-10.53,3.08-4.86,7.94-8.44,13.65-10.2,15.55-4.79,33.93-15.72,51.84-15.72,19.29,0,35.84,13.08,53.23,19.24,6.04,2.14,11.07,6.3,14.17,11.64,2.07,3.58,4.08,22.11,4.94,26.39,3.83,18.96,7.74,24.47,7.42,37.59-.57,23.8-6.95,22.29-7.11,41.92-.19,24.82-6.64,29.55-6.64,51.69,0,10.43-11.38,19.92-9.48,33.2,4.42,30.91,11.75,37.98,20.87,48.37,22.61,25.79,44.02.94,47.42-11.38Z" fill="#452c20"/>
  <g id="vetements">
    <path d="m387.37,399.98c0-13.85-1.23-34.77-1.23-47.52,0-18.33-11.23-28.72-28.07-37.89-16.84-9.16-94.28-29.26-94.28-29.26,0,55.39-63.61,57.33-63.61,57.33,0,0-68.21-3.69-68.21-59.08,0,0-72.83,21.85-89.67,31.01-16.85,9.17-28.07,19.55-28.07,37.89,0,12.75-1.23,36.26-1.23,47.52h374.36Z" fill="#e5d9d6"/>
    <path d="m260.34,284.41c-2.72,56.44-60.15,58.23-60.15,58.23,0,0-63.85-3.14-66.57-59.58l-20.3,6.23s4.68,72.26,86.87,72.26,81.3-71.49,81.3-71.49l-21.15-5.66Z" fill="#f2eded"/>
  </g>
  <g id="yeux">
    <circle id="oeil" cx="244.46" cy="125.89" r="8.04"/>
    <circle id="oeil-2" data-name="oeil" cx="151.89" cy="125.89" r="8.04"/>
  </g>
  <path id="nez_1" data-name="nez 1" d="m210.2,139.28s9.37,36.15,11.19,41.4c1.82,5.25-3.01,6.96-5.95,4.23-2.94-2.73-13.13,6.29-13.13,6.29-3.77,1.96-6.92,0-6.92,0,0,0-10.19-9.02-13.13-6.29-2.94,2.73-7.77,1.02-5.95-4.23,1.82-5.25,11.19-41.4,11.19-41.4" fill="url(#Dégradé_sans_nom_5)"/>
  <path id="moustache" d="m173.45,204.03l20.7-4.32c4.02-.84,8.23-.85,12.26-.03l20.53,4.35" fill="none" opacity=".6" stroke="#603813" stroke-miterlimit="10" stroke-width="2"/>
</svg>