<?xml version="1.0" encoding="UTF-8"?>
<svg id="Marie-Calire" xmlns="http://www.w3.org/2000/svg" xmlns:xlink="http://www.w3.org/1999/xlink" viewBox="0 0 400 400">
  <defs>
    <linearGradient id="Dégradé_sans_nom_10" data-name="Dégradé sans nom 10" x1="196.68" y1="208.42" x2="197.29" y2="155.86" gradientUnits="userSpaceOnUse">
      <stop offset="0" stop-color="#ffab9c"/>
      <stop offset="1" stop-color="#ffc8b0"/>
    </linearGradient>
  </defs>
  <path id="cou" d="m45.6,342.77c52.02-6.65,85.26-40.82,85.26-40.82,16.4-19.37,13.36-85.07,13.36-85.07h105.13s-3.04,65.7,13.36,85.07c0,0,33.25,34.17,85.26,40.82,0,0,7.07,1.55-9.33,25.14-8.15,11.7-74.79,17.59-141.85,17.68-67.07-.09-133.71-5.98-141.86-17.68-16.4-23.59-9.34-25.14-9.34-25.14Z" fill="#f9c2af"/>
  <path id="ombre" d="m144.73,259.59c-.51,6.61,31.2,33.03,50.56,33.03,21.64,0,53.18-26.31,53.64-34.39" fill="none" opacity=".05" stroke="#452c20" stroke-miterlimit="10" stroke-width="2"/>
  <g id="vetements">
    <path d="m379.81,400c0-13.3-1.18-33.4-1.18-45.65,0-17.61-10.78-27.59-26.96-36.39-16.18-8.8-90.57-28.1-90.57-28.1,0,53.21-61.1,55.07-61.1,55.07,0,0-65.52-3.72-65.52-56.93,0,0-69.96,21.16-86.14,29.96-16.18,8.81-26.96,18.78-26.96,36.39,0,12.25-1.18,34.83-1.18,45.65h359.61Z" fill="#ffdcc0"/>
    <path d="m255.85,288.37c-2.02,41.93-34.32,52.83-48.86,55.61-4.4.84-8.9.88-13.31.1-15.34-2.72-53.46-13.8-55.55-57.05l-21.25,6.42s4.16,69.63,83.12,69.63,78.8-68.5,78.8-68.5l-22.95-6.22Z" fill="#f9e8d2"/>
  </g>
  <path id="visage" d="m203.84,291.21c77.9-23.95,86.92-136.59,86.92-136.59,0,0,12.91-116.17-93.97-117.72-106.88,1.55-93.97,117.72-93.97,117.72,0,0,8.03,112.01,84.96,136.65,2.51.81,12.98.89,16.06-.06Z" fill="#ffc8b0"/>
  <g id="oreilles">
    <path id="oreille_gauche_2" data-name="oreille gauche 2" d="m103.2,157.75s-5.12-9.6-11.8-6.47c-3.03,1.42.84,24.22.84,24.22,2.05,16.4,22.82,30.42,22.82,30.42" fill="#f8bfb0"/>
    <path id="oreille_droite_2" data-name="oreille droite 2" d="m290.69,157.75s5.12-9.6,11.8-6.47c3.03,1.42-.84,24.22-.84,24.22-2.05,16.4-22.82,30.42-22.82,30.42" fill="#f8bfb0"/>
  </g>
  <g id="cheveux">
    <path d="m119.07,220.36s-15.28-2.82-21.36,7.49c-6.6,11.19-6.69,28.64,9.1,47.11,11.61,13.57,21.97,7.31,25.57,5.01,8.68-5.53,10.59-19.35,10.59-19.35-2.34-2.74-6.55-8.45-9.38-12.57-1.55-2.25-5.46-9.45-6.64-11.54-1.1-2.14-6.42-12.38-7.88-16.17Z" fill="#826116"/>
    <path d="m196.77,8.02c-123.25.37-108.46,140.9-106.93,146.47,1.54,5.57,15.16,16.54,15.16,16.54,0,0-13.46-126.21,85.99-130.76-.37.1-.6.17-.6.17,0,0,26.58,27.14,78.02,34.73,26.61,38.77,20.9,95.86,20.9,95.86,0,0,12.73-10.97,14.27-16.54,1.54-5.57,17.49-146.83-106.81-146.47Z" fill="#826116"/>
  </g>
  <g id="yeux">
    <circle id="oeil" cx="248.57" cy="142.62" r="8.04"/>
    <circle id="oeil-2" data-name="oeil" cx="145" cy="142.62" r="8.04"/>
  </g>
  <path id="nez_1" data-name="nez 1" d="m207.43,155.98s8.8,35.91,10.51,41.12c1.71,5.21-2.82,6.92-5.58,4.2-2.76-2.71-12.32,6.25-12.32,6.25-3.54,1.95-6.5,0-6.5,0,0,0-9.56-8.96-12.32-6.25-2.76,2.71-7.29,1.01-5.58-4.2,1.71-5.21,10.51-41.12,10.51-41.12" fill="url(#Dégradé_sans_nom_10)"/>
  <g id="taches_de_rousseur" data-name="taches de rousseur">
    <g id="grain_de_beaute" data-name="grain de beaute">
      <ellipse cx="134.5" cy="192.53" rx="4.81" ry="1.57" fill="#8c5b03" opacity=".1"/>
      <ellipse cx="148.65" cy="194.09" rx="4.81" ry="1.57" fill="#8c5b03" opacity=".1"/>
      <ellipse cx="143.84" cy="198.31" rx="4.81" ry="1.57" fill="#8c5b03" opacity=".1"/>
      <ellipse cx="156.17" cy="198.31" rx="4.81" ry="1.57" fill="#8c5b03" opacity=".1"/>
      <ellipse cx="129.68" cy="196.75" rx="4.81" ry="1.57" fill="#8c5b03" opacity=".1"/>
      <ellipse cx="146.54" cy="189.4" rx="4.81" ry="1.57" fill="#8c5b03" opacity=".1"/>
      <ellipse cx="139.91" cy="183.94" rx="4.81" ry="1.57" fill="#8c5b03" opacity=".1"/>
      <ellipse cx="160.98" cy="190.96" rx="4.81" ry="1.57" fill="#8c5b03" opacity=".1"/>
      <ellipse cx="165.79" cy="195.66" rx="4.81" ry="1.57" fill="#8c5b03" opacity=".1"/>
      <ellipse cx="129.68" cy="187.83" rx="4.81" ry="1.57" fill="#8c5b03" opacity=".1"/>
      <ellipse cx="120.81" cy="192.53" rx="4.81" ry="1.57" fill="#8c5b03" opacity=".1"/>
      <ellipse cx="167.48" cy="201.44" rx="4.81" ry="1.57" fill="#8c5b03" opacity=".1"/>
    </g>
    <g id="grain_de_beaute-2" data-name="grain de beaute">
      <ellipse cx="258.89" cy="191.77" rx="4.81" ry="1.57" fill="#8c5b03" opacity=".1"/>
      <ellipse cx="244.73" cy="193.33" rx="4.81" ry="1.57" fill="#8c5b03" opacity=".1"/>
      <ellipse cx="249.55" cy="197.55" rx="4.81" ry="1.57" fill="#8c5b03" opacity=".1"/>
      <ellipse cx="237.22" cy="197.55" rx="4.81" ry="1.57" fill="#8c5b03" opacity=".1"/>
      <ellipse cx="263.71" cy="195.98" rx="4.81" ry="1.57" fill="#8c5b03" opacity=".1"/>
      <ellipse cx="246.85" cy="188.64" rx="4.81" ry="1.57" fill="#8c5b03" opacity=".1"/>
      <ellipse cx="254.36" cy="183.76" rx="4.81" ry="1.57" fill="#8c5b03" opacity=".1"/>
      <ellipse cx="232.41" cy="190.2" rx="4.81" ry="1.57" fill="#8c5b03" opacity=".1"/>
      <ellipse cx="227.59" cy="194.9" rx="4.81" ry="1.57" fill="#8c5b03" opacity=".1"/>
      <ellipse cx="263.71" cy="187.07" rx="4.81" ry="1.57" fill="#8c5b03" opacity=".1"/>
      <ellipse cx="272.58" cy="191.77" rx="4.81" ry="1.57" fill="#8c5b03" opacity=".1"/>
      <ellipse cx="225.91" cy="200.68" rx="4.81" ry="1.57" fill="#8c5b03" opacity=".1"/>
    </g>
  </g>
</svg>