<?xml version="1.0" encoding="UTF-8"?>
<svg id="Nino" xmlns="http://www.w3.org/2000/svg" xmlns:xlink="http://www.w3.org/1999/xlink" viewBox="0 0 400 400">
  <defs>
    <linearGradient id="Dégradé_sans_nom_13" data-name="Dégradé sans nom 13" x1="198.45" y1="194.43" x2="199.12" y2="137.49" gradientUnits="userSpaceOnUse">
      <stop offset=".1" stop-color="#ffab9c"/>
      <stop offset="1" stop-color="#ffc8b0" stop-opacity="0"/>
    </linearGradient>
  </defs>
  <path id="cou" d="m33.28,337.98c56.91-6.87,93.27-42.2,93.27-42.2,17.94-20.03,14.62-87.94,14.62-87.94h115.01s-3.32,67.92,14.61,87.94c0,0,36.38,35.33,93.27,42.2,0,0,7.73,1.61-10.21,25.99-8.91,12.1-81.81,18.19-155.18,18.28-73.37-.09-146.28-6.18-155.19-18.28-17.94-24.38-10.21-25.99-10.21-25.99Z" fill="#f9c2af"/>
  <path id="ombre" d="m140.68,243.27l-.22,2.72c2.7,2.57,10.28,13.67,21.61,19.89,12.5,7.49,24.93,10.05,35.48,10.05,9.64,0,19.19-.24,33.91-8.04,9.94-5.27,22.87-20.11,25.43-22.19l-.3-4.16" fill="#452c20" opacity=".05"/>
  <g id="vetements">
    <path d="m385.88,399.67c0-13.75-1.22-34.53-1.22-47.19,0-18.21-11.15-28.52-27.87-37.62-16.72-9.1-93.62-29.05-93.62-29.05,0,55.01-63.16,56.93-63.16,56.93,0,0-67.74-3.84-67.74-58.85,0,0-72.32,21.87-89.04,30.97-16.73,9.1-27.87,19.42-27.87,37.62,0,12.66-1.22,36.01-1.22,47.19h371.75Z" fill="#070759"/>
    <path d="m263.16,285.8c-2.7,56.04-63.16,56.93-63.16,56.93,0,0-65.04-2.81-67.74-58.85l-19.73,5.55s5.86,72.08,87.47,72.08,84.82-69.9,84.82-69.9l-21.66-5.81Z" fill="#18427f"/>
  </g>
  <path id="visage" d="m293.49,126.28c0,65.04-36.53,147.64-95.12,147.64s-95.58-80.72-95.58-147.64c0-81.54,36.76-116.61,95.35-116.61s95.35,35.06,95.35,116.61Z" fill="#ffc8b0"/>
  <path id="cheveux" d="m209.88,9.94l-21.5.17c-43.44.33-88.99,29.51-88.99,105.08,0,7.77,2.12,18.24,2.42,18.47l1.47.5c0-12.69,3.85-24.76,7.47-34.97,3.37-9.49,10.68-27,17.68-34.24,9.53-9.85,20.22-12.28,35.15-13.61,24.92-2.21,22.24-10.01,48.57-11.72,7.44-.48,28.88-1.74,45.76,10.44,10.68,7.71,28.13,31.33,35.32,82.97.09.66.99.9,1.49,1.36.79-2,2.18-15.99,1.91-21.62.02-65.66-45.41-103.13-86.74-102.81Z" fill="#2d2721"/>
  <g id="oreilles">
    <path id="oreille_droite_1" data-name="oreille droite 1" d="m103.28,134.15s-10.84-5.32-10.66,12.71c.17,17.11,19.57,39.29,19.57,39.29-2.62-10.15-4.3-14.79-6.34-27.42-.46-6.43-2.47-18.67-2.57-24.58Z" fill="#f8bfb0"/>
    <path id="oreille_gauche_1" data-name="oreille gauche 1" d="m284.71,186.15s19.9-23.36,20.02-40.73c.12-17.5-11.5-12.4-11.5-12.4-.2,5.31-1.68,16.26-2.1,21.85-1.8,12.52-3.91,19.91-6.42,31.28Z" fill="#f8bfb0"/>
  </g>
  <g id="yeux">
    <circle id="oeil" cx="248.73" cy="133.42" r="7.9"/>
    <circle id="oeil-2" data-name="oeil" cx="151.27" cy="133.42" r="7.9"/>
  </g>
  <path id="nez_1" data-name="nez 1" d="m208.01,137.6s7.84,41.87,9.36,47.94c1.52,6.08-2.52,8.06-4.97,4.9-2.46-3.16-10.98,2.97-10.98,2.97-3.15,2.27-5.79,0-5.79,0,0,0-8.52-6.14-10.98-2.97-2.46,3.16-6.5,1.18-4.97-4.9,1.52-6.08,9.36-47.94,9.36-47.94" fill="url(#Dégradé_sans_nom_13)"/>
  <path id="moustache" d="m172.7,208.29l21.13-4.13c4.1-.8,8.4-.81,12.51-.03l20.95,4.16" fill="none" opacity=".7" stroke="#000" stroke-miterlimit="10" stroke-width="2"/>
</svg>