<?xml version="1.0" encoding="UTF-8"?>
<svg id="Xavier" xmlns="http://www.w3.org/2000/svg" xmlns:xlink="http://www.w3.org/1999/xlink" viewBox="0 0 400 400">
  <defs>
    <linearGradient id="Dégradé_sans_nom_5" data-name="Dégradé sans nom 5" x1="198.62" y1="218.58" x2="198.62" y2="165.38" gradientUnits="userSpaceOnUse">
      <stop offset=".1" stop-color="#ffab9c"/>
      <stop offset="1" stop-color="#ffc8b0" stop-opacity="0"/>
    </linearGradient>
  </defs>
  <path id="cou" d="m40.55,343.64c54.2-6.55,88.84-40.2,88.84-40.2,17.09-19.08,13.93-83.77,13.93-83.77h109.55s-3.17,64.69,13.92,83.77c0,0,34.65,33.65,88.84,40.2,0,0,7.36,1.53-9.73,24.75-8.49,11.52-77.93,17.32-147.81,17.41-69.89-.09-139.33-5.89-147.82-17.41-17.09-23.22-9.73-24.75-9.73-24.75Z" fill="#f9c2af"/>
  <path id="ombre" d="m142.84,253.27l-.6,6.89c2.62,2.45,10.51,12.91,21.49,18.83,12.11,7.13,24.67,12.11,34.89,12.11,9.34,0,19.48-3.33,33.74-10.76,9.64-5.02,19.29-15.95,21.77-17.93l-.24-2.35" fill="#452c20" opacity=".1"/>
  <g id="vetements">
    <path d="m377.05,400c0-13.1-1.16-32.89-1.16-44.95,0-17.34-10.62-27.16-26.55-35.84-15.93-8.67-89.18-27.67-89.18-27.67,0,52.39-60.16,54.22-60.16,54.22,0,0-64.52-3.66-64.52-56.05,0,0-68.89,20.83-84.81,29.5-15.93,8.67-26.55,18.49-26.55,35.84,0,12.06-1.16,34.3-1.16,44.95h354.09Z" fill="#e5d9d6"/>
    <path d="m260.16,291.54c-2.58,53.38-60.16,54.22-60.16,54.22,0,0-61.95-2.67-64.52-56.05l-18.79,5.29s5.58,68.66,83.32,68.66,80.79-66.58,80.79-66.58l-20.64-5.54Z" fill="#a3a2a2"/>
  </g>
  <path id="visage" d="m298.27,140.93c0,54.21-26.01,101.32-54.35,127.75,0,0-24.12,17.44-45.35,17.44-22.32,0-45.15-21.46-45.15-21.46-27.08-26.82-54.35-70.99-54.35-123.73,0-83,38.39-118.69,99.6-118.69s99.6,35.69,99.6,118.69Z" fill="#ffc8b0"/>
  <g id="yeux">
    <ellipse id="oeil" cx="246.11" cy="150.59" rx="7.45" ry="7.36"/>
    <ellipse id="oeil-2" data-name="oeil" cx="150.07" cy="150.59" rx="7.45" ry="7.36"/>
  </g>
  <path id="cheveux" d="m198.28,12.12c-114.3,0-107.86,112.46-106.24,129.44.13,1.34.87,2.53,2.01,3.24l4.74,2.94c.99.62,2.28-.09,2.29-1.26.1-9.76,1.27-43.88,12.23-63.22.76-1.35,2.06-2.33,3.56-2.67,9.07-2.09,43.57-21.53,63.44-16.12,45.89,12.49,61.01-14.04,82.56-13.28.95.03,1.86.37,2.61.96,22.53,17.52,29.13,78.6,30.41,93.27.13,1.49,1.75,2.34,3.05,1.6l4.46-2.52c1.23-.7,2.04-1.95,2.16-3.36,1.5-17.39,6.71-129.02-107.29-129.02Z" fill="#452c20"/>
  <path id="nez_1" data-name="nez 1" d="m208.02,165.38s7.77,36.43,9.28,41.71c1.51,5.29-2.49,7.02-4.93,4.26-2.44-2.75-10.89,6.34-10.89,6.34-3.12,1.98-5.74,0-5.74,0,0,0-8.45-9.09-10.89-6.34-2.44,2.75-6.44,1.03-4.93-4.26,1.51-5.29,9.28-41.71,9.28-41.71" fill="url(#Dégradé_sans_nom_5)"/>
  <g id="lunette">
    <path d="m184.67,156.4c1.98-8.71-1.25-17.86-8.79-23.33-2.19-1.59-4.72-2.98-7.56-3.83-10.71-3.22-50.13-6.36-51.1,14.1-.54,11.27,4.25,20.25,8.66,26.04,3.73,4.9,9.49,8.18,15.86,9.16,5.18.8,12.04,1.4,19,.71,8.16-.81,15.42-5.15,19.46-11.81,1.81-2.98,3.49-6.66,4.48-11.04Z" fill="none" stroke="#68604c" stroke-miterlimit="10"/>
    <path d="m212.57,156.4c-1.98-8.71,1.25-17.86,8.79-23.33,2.19-1.59,4.72-2.98,7.56-3.83,10.71-3.22,50.13-6.36,51.1,14.1.54,11.27-4.25,20.25-8.66,26.04-3.73,4.9-9.49,8.18-15.86,9.16-5.51.85-12.93,1.48-20.33.57-7.23-.89-13.7-4.83-17.49-10.65-2.04-3.14-4.01-7.16-5.12-12.06Z" fill="none" stroke="#68604c" stroke-miterlimit="10"/>
    <path d="m185.55,147.49s12.35-5.26,26.15,0" fill="none" stroke="#68604c" stroke-miterlimit="10"/>
    <line x1="117.68" y1="141.59" x2="101.32" y2="141.59" fill="none" stroke="#68604c" stroke-miterlimit="10"/>
    <line x1="281.22" y1="141.59" x2="295.2" y2="141.59" fill="none" stroke="#68604c" stroke-miterlimit="10"/>
  </g>
  <g id="oreilles">
    <path id="oreille_gauche_2" data-name="oreille gauche 2" d="m298.14,147.48s9.65-8.34,13.72-2.09c1.2,1.83-3.47,18.4-3.47,18.4-2.38,15.02-15.56,19.98-15.56,19.98" fill="#f8bfb0"/>
    <path id="oreille_gauche_2-2" data-name="oreille gauche 2" d="m104.99,183.59s-13.75-4.78-16.14-19.8c0,0-4.66-16.57-3.47-18.4,4.08-6.24,13.82,2.63,13.82,2.63" fill="#f8bfb0"/>
  </g>
  <g id="masque">
    <path id="masque-2" data-name="masque" d="m298.14,147.48l-20.86,49.8s-31.16-5.3-78.53-5.3-77.16,5.75-77.16,5.75l-22.37-49.72,4.56,35.07c3.31,8.86,6.62,17.71,9.93,26.57,1.31,2.74,3.38,6.97,6.04,12.08,7.46,14.31,14.19,25.02,15.57,27.2,14.75,23.33,44.28,39.56,63.66,39.56,20.22,0,47.29-15.42,64.63-40.45,6.97-10.06,15.48-20.89,19.58-34.15,1.96-5.76,3.98-11.55,5.93-17.37,1.45-4.33,2.81-8.66,4.24-12.97,1.6-12.02,3.19-24.05,4.78-36.07Z" fill="#9fbdd4"/>
    <path d="m119.16,198.97c.66,1.48.79,3.15.37,4.71l-1.57,5.86-14.17-26.47-3.46-26.64,18.84,42.53Z" fill="#ffc8b0"/>
    <path d="m278.86,199.09c-.66,1.48-.79,3.15-.37,4.71l1.57,5.86,13.29-26.11,3.55-26.56-18.05,42.1Z" fill="#ffc8b0"/>
  </g>
</svg>