<?xml version="1.0" encoding="UTF-8"?>
<svg id="Yanis" xmlns="http://www.w3.org/2000/svg" xmlns:xlink="http://www.w3.org/1999/xlink" viewBox="0 0 400 400">
  <defs>
    <linearGradient id="Dégradé_sans_nom_5" data-name="Dégradé sans nom 5" x1="199.64" y1="203.55" x2="199.64" y2="154.54" gradientUnits="userSpaceOnUse">
      <stop offset=".1" stop-color="#ffab9c"/>
      <stop offset="1" stop-color="#ffc8b0" stop-opacity="0"/>
    </linearGradient>
  </defs>
  <path id="cou" d="m38.89,343.06c54.77-6.61,89.77-40.62,89.77-40.62,17.27-19.27,14.07-84.64,14.07-84.64h110.69s-3.2,65.37,14.07,84.64c0,0,35.01,34,89.77,40.62,0,0,7.44,1.55-9.83,25.01-8.58,11.64-78.74,17.5-149.35,17.59-70.62-.09-140.78-5.95-149.36-17.59-17.27-23.47-9.83-25.01-9.83-25.01Z" fill="#f9c2af"/>
  <g id="vetements">
    <path d="m378.89,400c0-13.24-1.17-33.23-1.17-45.42,0-17.52-10.73-27.45-26.83-36.21-16.09-8.76-90.11-27.96-90.11-27.96,0,52.94-60.79,54.79-60.79,54.79,0,0-65.19-3.7-65.19-56.64,0,0-69.6,21.05-85.7,29.81-16.1,8.76-26.83,18.69-26.83,36.21,0,12.19-1.17,34.65-1.17,45.42h357.79Z" fill="#e5d9d6"/>
    <path d="m260.78,290.41c-2.6,53.94-60.78,54.79-60.78,54.79,0,0-62.59-2.7-65.2-56.64l-18.99,5.34s5.64,69.38,84.19,69.38,81.64-67.27,81.64-67.27l-20.85-5.6Z" fill="#a3a2a2"/>
  </g>
  <path id="visage" d="m293.57,139.17c0,50.7-25.81,99.43-52.55,124.15-14.2,13.13-21.14,16.39-41.16,16.39-21.05,0-29.53-5.76-44.19-20.15-25.54-25.08-49.97-71.07-49.97-120.39,0-77.62,36.21-111,93.93-111s93.93,33.38,93.93,111Z" fill="#ffc8b0"/>
  <g id="yeux">
    <ellipse id="oeil" cx="244.22" cy="142.12" rx="7.99" ry="7.76"/>
    <ellipse id="oeil-2" data-name="oeil" cx="151.92" cy="142.12" rx="7.99" ry="7.76"/>
  </g>
  <path id="nez_1" data-name="nez 1" d="m211.7,154.54s9.97,33.56,11.9,38.43c1.93,4.87-3.2,6.46-6.32,3.93-3.12-2.54-13.95,5.84-13.95,5.84-4,1.82-7.36,0-7.36,0,0,0-10.83-8.38-13.95-5.84-3.12,2.54-8.26.94-6.32-3.93s11.9-38.43,11.9-38.43" fill="url(#Dégradé_sans_nom_5)"/>
  <g id="oreilles">
    <path id="oreille_gauche_2" data-name="oreille gauche 2" d="m290.91,147.43s8.51-8.79,12.22-2.2c1.09,1.93.25,18.58.25,18.58-2.17,15.85-16.69,21.92-16.69,21.92" fill="#f8bfb0"/>
    <path id="oreille_gauche_2-2" data-name="oreille gauche 2" d="m112.69,185.72s-14.04-6.06-16.21-21.91c0,0-1.69-15.48-.6-17.41,3.71-6.59,12.33,0,12.33,0" fill="#f8bfb0"/>
  </g>
  <path id="cheveux" d="m199.38,8.01c114.99,0,106.71,134.76,106.71,134.76-.75,1.58.08,4.02-5.25,7.79-2.51,1.77-9.32,8.47-11.07,8.47.94-7.97,1.66-22.44.85-32.89-1.25-16.14-4.4-31.58-15.96-49.55-12.01,11.04-44.89,16.46-69.42,20.56-45.1,7.53-66.01,3.08-90.61.11-8.87,28.53-4.5,62.5-4.5,62.5-1.02.22-7.17-4.71-12.22-7.78-5.54-3.36-4.68-8.99-4.83-9.87-1.01-48.82,4.92-134.11,106.31-134.11Z" fill="#1c120f"/>
  <path id="moustache" d="m172.31,213.04l21.13-4.13c4.1-.8,8.4-.81,12.51-.03l20.95,4.16" fill="none" opacity=".7" stroke="#000" stroke-miterlimit="10" stroke-width="2"/>
  <path id="barbe" d="m286.69,185.72s-13.63,9.15-27.05,32.08c-7.48,12.77-22.15,27.4-37.63,35.49-7.32,3.83-13.16,3.39-22,3.39s-15.13.42-22.72-3.5c-15.77-8.15-30.3-22.82-37.11-35.78-10.6-20.17-27.48-31.68-27.48-31.68,1.19,5.43,6.35,20.85,16.66,38.98,5.65,9.93,12.98,19.65,12.98,19.65,0,0,10.04,15.44,20.54,23.93,9.88,9.65,23.96,14.62,37.13,14.62,15.88,0,25.4-4.41,36.18-13.94,10.42-9.22,18-19.87,18-19.87,4.47-4.24,15.18-22.19,15.94-23.83,9.48-15.92,16.56-39.53,16.56-39.53Z" fill="#452c20" opacity=".15"/>
</svg>